<svg xmlns="http://www.w3.org/2000/svg" viewBox="0 0 361 76" width="361" height="76">
  <path d="M4.524 47.732Q6.76 49.864 8.606 50.774Q10.452 51.684 12.011999999999999 51.684Q13.363999999999999 51.684 14.091999999999999 51.06Q14.819999999999999 50.436 14.819999999999999 49.448Q14.819999999999999 48.044 13.494 47.263999999999996Q12.168 46.484 9.568 45.6Q7.904 45.028 6.343999999999999 44.144Q4.784 43.26 3.7699999999999996 41.83Q2.756 40.4 2.756 38.164Q2.756 36.032 3.8999999999999995 34.55Q5.044 33.068 6.994 32.314Q8.943999999999999 31.560000000000002 11.336 31.560000000000002Q14.351999999999999 31.560000000000002 16.848 32.678Q19.343999999999998 33.796 21.06 35.46L18.096 39.620000000000005Q16.796 38.268 15.001999999999999 37.358000000000004Q13.208 36.448 11.491999999999999 36.448Q10.347999999999999 36.448 9.698 36.89Q9.048 37.332 9.048 38.216Q9.048 39.464 10.504 40.166Q11.959999999999999 40.868 14.351999999999999 41.804Q16.276 42.532 17.914 43.416Q19.552 44.3 20.54 45.678Q21.528 47.056 21.528 49.24Q21.528 52.828 19.188 54.83Q16.848 56.832 12.74 56.832Q8.943999999999999 56.832 6.084 55.376000000000005Q3.2239999999999998 53.92 1.248 51.944Z" fill="#1a1c1f"/>
  <path d="M23.088 32.08H27.195999999999998V23.759999999999998H33.696V32.08H37.855999999999995V37.748000000000005H33.696V56.0H27.195999999999998V37.748000000000005H23.088Z" fill="#1a1c1f"/>
  <path d="M41.132 22.823999999999998Q41.132 21.160000000000004 42.302 20.094Q43.472 19.028 45.188 19.028Q46.852 19.028 48.022 20.094Q49.192 21.160000000000004 49.192 22.823999999999998Q49.192 24.488000000000003 48.022 25.554000000000002Q46.852 26.62 45.188 26.62Q43.472 26.62 42.302 25.554000000000002Q41.132 24.488000000000003 41.132 22.823999999999998ZM41.86 32.08H48.412V56.0H41.86Z" fill="#1a1c1f"/>
  <path d="M55.536 15.440000000000005H62.296V56.0H55.536Z" fill="#1a1c1f"/>
  <path d="M68.952 15.440000000000005H75.71199999999999V56.0H68.952Z" fill="#1a1c1f"/>
  <path d="M78.832 32.08H86.008L91.25999999999999 45.34L98.02 30.26L105.03999999999999 45.444L110.344 32.08H117.46799999999999L105.76799999999999 57.612L98.07199999999999 42.376000000000005L90.58399999999999 57.612Z" fill="#1a1c1f"/>
  <path d="M122.82399999999998 38.84 120.32799999999999 34.263999999999996Q122.19999999999999 33.328 124.90399999999998 32.392Q127.60799999999998 31.456 130.93599999999998 31.456Q134.004 31.456 136.37 32.34Q138.736 33.224000000000004 140.11399999999998 34.940000000000005Q141.492 36.656000000000006 141.492 39.048V56.0H134.992V52.724000000000004Q133.89999999999998 54.596000000000004 131.69 55.55800000000001Q129.48 56.52 127.08799999999998 56.52Q124.79999999999998 56.52 122.87599999999998 55.636Q120.95199999999998 54.752 119.80799999999999 53.062Q118.66399999999999 51.372 118.66399999999999 48.928Q118.66399999999999 45.444 121.10799999999998 43.416Q123.55199999999998 41.388 128.02399999999997 41.388Q130.31199999999998 41.388 132.07999999999998 41.882000000000005Q133.84799999999998 42.376000000000005 134.992 43.0V40.452Q134.992 38.476 133.692 37.592Q132.392 36.708 130.20799999999997 36.708Q128.54399999999998 36.708 127.03599999999997 37.098Q125.52799999999998 37.488 124.40999999999998 37.982Q123.29199999999999 38.476 122.82399999999998 38.84ZM125.42399999999998 48.564Q125.42399999999998 50.176 126.54199999999997 51.034000000000006Q127.65999999999998 51.892 129.37599999999998 51.892Q131.664 51.892 133.32799999999997 50.462Q134.992 49.032 134.992 46.432Q132.70399999999998 45.34 129.896 45.34Q127.55599999999998 45.34 126.48999999999998 46.198Q125.42399999999998 47.056 125.42399999999998 48.564Z" fill="#1a1c1f"/>
  <path d="M161.356 39.1Q160.68 38.476 159.978 38.138Q159.276 37.8 158.236 37.8Q156.31199999999998 37.8 155.32399999999998 39.282Q154.33599999999998 40.764 154.33599999999998 43.312V56.0H147.732V32.08H154.33599999999998V34.992000000000004Q155.428 33.38 156.93599999999998 32.444Q158.444 31.508000000000003 160.05599999999998 31.508000000000003Q161.356 31.508000000000003 162.526 32.002Q163.696 32.496 164.424 33.38Z" fill="#1a1c1f"/>
  <path d="M166.4 44.04Q166.4 40.036 168.012 37.254000000000005Q169.624 34.472 172.25 33.016000000000005Q174.876 31.560000000000002 177.892 31.560000000000002Q183.248 31.560000000000002 186.05599999999998 35.980000000000004V15.440000000000005H192.816V56.0H186.05599999999998V52.1Q183.248 56.52 177.892 56.52Q174.876 56.52 172.25 55.064Q169.624 53.608 168.012 50.82599999999999Q166.4 48.044 166.4 44.04ZM173.368 44.04Q173.368 47.264 175.292 49.11Q177.216 50.956 179.868 50.956Q181.376 50.956 182.80599999999998 50.150000000000006Q184.236 49.344 185.146 47.784000000000006Q186.05599999999998 46.224000000000004 186.05599999999998 44.04Q186.05599999999998 41.856 185.146 40.29600000000001Q184.236 38.736000000000004 182.80599999999998 37.93000000000001Q181.376 37.124 179.868 37.124Q177.216 37.124 175.292 38.97Q173.368 40.816 173.368 44.04Z" fill="#1a1c1f"/>
  <path d="M210.096 15.440000000000005H212.8V56.0H210.096Z" fill="#1a1c1f"/>
  <path d="M221.536 36.448 220.184 34.42Q221.536 33.484 223.694 32.522000000000006Q225.85199999999998 31.560000000000002 229.024 31.560000000000002Q233.07999999999998 31.560000000000002 235.368 33.510000000000005Q237.65599999999998 35.46 237.65599999999998 39.048V56.0H234.952V51.528Q233.85999999999999 54.076 231.51999999999998 55.298Q229.17999999999998 56.52 226.736 56.52Q224.65599999999998 56.52 222.81 55.688Q220.964 54.856 219.82 53.166Q218.676 51.476 218.676 48.928Q218.676 45.444 221.094 43.416Q223.512 41.388 227.672 41.388Q230.272 41.388 232.09199999999998 42.064Q233.91199999999998 42.74 234.952 43.416V39.412Q234.952 38.007999999999996 234.38 36.76Q233.808 35.512 232.48199999999997 34.732Q231.15599999999998 33.952 228.81599999999997 33.952Q226.164 33.952 224.344 34.836Q222.524 35.72 221.536 36.448ZM221.432 48.824Q221.432 51.528 223.2 52.854Q224.968 54.18 227.464 54.18Q229.492 54.18 231.182 53.244Q232.87199999999999 52.308 233.91199999999998 50.488Q234.952 48.668 234.952 46.016V45.34Q231.93599999999998 43.572 228.088 43.572Q225.07199999999997 43.572 223.25199999999998 44.846000000000004Q221.432 46.120000000000005 221.432 48.824Z" fill="#1a1c1f"/>
  <path d="M267.972 44.04Q267.972 47.888 266.438 50.696Q264.904 53.504 262.278 55.012Q259.652 56.52 256.428 56.52Q253.35999999999999 56.52 251.046 54.856Q248.73199999999997 53.192 247.53599999999997 50.384V56.0H244.832V15.440000000000005H247.53599999999997V37.696Q248.73199999999997 34.888000000000005 251.046 33.224000000000004Q253.35999999999999 31.560000000000002 256.428 31.560000000000002Q259.652 31.560000000000002 262.278 33.068Q264.904 34.576 266.438 37.384Q267.972 40.192 267.972 44.04ZM265.268 44.04Q265.268 40.92 264.02 38.684Q262.772 36.448 260.692 35.278000000000006Q258.61199999999997 34.108000000000004 256.06399999999996 34.108000000000004Q253.82799999999997 34.108000000000004 251.878 35.408Q249.92799999999997 36.708 248.73199999999997 38.944Q247.53599999999997 41.18 247.53599999999997 44.04Q247.53599999999997 46.9 248.73199999999997 49.135999999999996Q249.92799999999997 51.372 251.878 52.672Q253.82799999999997 53.972 256.06399999999996 53.972Q258.61199999999997 53.972 260.692 52.775999999999996Q262.772 51.58 264.02 49.37Q265.268 47.16 265.268 44.04Z" fill="#1a1c1f"/>
  <path d="M274.056 49.188Q274.836 51.164 276.5 52.594Q278.164 54.024 280.972 54.024Q283.104 54.024 284.456 52.906Q285.808 51.788 285.808 49.812Q285.808 48.356 284.976 47.394000000000005Q284.144 46.432 282.79200000000003 45.782Q281.44 45.132 279.88 44.612Q278.216 44.04 276.63 43.233999999999995Q275.044 42.428 274.056 41.128Q273.068 39.828 273.068 37.644000000000005Q273.068 35.616 274.082 34.29Q275.096 32.964 276.73400000000004 32.288Q278.372 31.612000000000002 280.244 31.612000000000002Q283.26 31.612000000000002 285.366 33.068Q287.472 34.524 288.408 36.5L286.172 37.852000000000004Q285.34 36.292 283.832 35.148Q282.324 34.004000000000005 279.932 34.004000000000005Q278.164 34.004000000000005 276.942 34.888000000000005Q275.72 35.772000000000006 275.72 37.488Q275.72 38.944 276.5 39.828Q277.28 40.712 278.554 41.284000000000006Q279.828 41.856 281.336 42.376000000000005Q283.26 43.104 284.898 43.988Q286.536 44.872 287.55 46.172Q288.564 47.472 288.564 49.5Q288.564 52.62 286.406 54.57Q284.248 56.52 280.816 56.52Q278.32 56.52 276.5 55.636Q274.68 54.752 273.51 53.348Q272.34 51.944 271.872 50.436Z" fill="#1a1c1f"/>
  <!-- baseline line -->
  <line x1="307.0" y1="56.0" x2="357.0" y2="56.0" stroke="#2b4c8c" stroke-width="1.8" stroke-linecap="round"/>
  <!-- trend line -->
  <line x1="313.0" y1="52.0" x2="351.0" y2="20.0" stroke="#2b4c8c" stroke-width="1.8" stroke-linecap="round"/>
  <!-- lower dot -->
  <circle cx="313.0" cy="52.0" r="4" fill="#2b4c8c"/>
  <!-- upper dot -->
  <circle cx="351.0" cy="20.0" r="4" fill="#2b4c8c"/>
</svg>